# Blender v2.70 (sub 0) OBJ File: 'Pencil.blend'
# www.blender.org
mtllib Pencil.mtl
o Cone.001_Cone.002
v 0.250000 0.433013 0.120317
v 0.000000 0.500000 2.603390
v 0.250000 0.433013 2.603390
v 0.433013 0.250000 2.603390
v 0.500000 -0.000000 2.603390
v 0.433013 -0.250000 2.603390
v 0.250000 -0.433013 2.603390
v 0.000000 -0.500000 2.603390
v -0.250000 -0.433013 2.603390
v -0.433013 -0.250000 2.603390
v -0.500000 -0.000000 2.603390
v -0.433013 0.250000 2.603390
v -0.250000 0.433013 2.603390
v 0.000000 0.000000 3.603390
v 0.000000 0.000000 0.000000
v -0.000000 0.380546 0.000000
v 0.190273 0.329562 0.000000
v 0.329562 0.190273 0.000000
v 0.380546 -0.000000 0.000000
v 0.329562 -0.190273 0.000000
v 0.190273 -0.329562 0.000000
v 0.000000 -0.380546 0.000000
v -0.190273 -0.329562 0.000000
v -0.329562 -0.190273 0.000000
v -0.380546 -0.000000 0.000000
v -0.329562 0.190273 0.000000
v -0.190273 0.329562 0.000000
v 0.433013 0.250000 0.120317
v 0.500000 -0.000000 0.120317
v 0.433013 -0.250000 0.120317
v 0.250000 -0.433013 0.120317
v 0.000000 -0.500000 0.120317
v -0.250000 -0.433013 0.120317
v -0.433013 -0.250000 0.120317
v -0.500000 -0.000000 0.120317
v -0.433013 0.250000 0.120317
v 0.000000 0.500000 0.120317
v -0.250000 0.433013 0.120317
vt 0.200887 0.388319
vt 0.163511 0.338549
vt 0.212609 0.290190
vt 0.126398 0.409410
vt 0.106819 0.354602
vt 0.398172 0.437332
vt 0.437398 0.394337
vt 0.490625 0.394337
vt 0.337607 0.389111
vt 0.391303 0.357636
vt 0.302640 0.305589
vt 0.364690 0.294068
vt 0.302640 0.209146
vt 0.364690 0.220667
vt 0.337607 0.125624
vt 0.391303 0.157099
vt 0.398172 0.077403
vt 0.437398 0.120398
vt 0.468106 0.077403
vt 0.490625 0.120398
vt 0.302640 0.145272
vt 0.240955 0.153569
vt 0.212609 0.101914
vt 0.302640 0.235818
vt 0.240955 0.222483
vt 0.265396 0.324780
vt 0.865466 0.083028
vt 0.963471 0.290587
vt 0.825807 0.109539
vt 0.688143 0.063145
vt 0.688143 0.290587
vt 0.640527 0.066047
vt 0.590139 0.083028
vt 0.550479 0.109539
vt 0.688143 0.471635
vt 0.825807 0.290587
vt 0.727803 0.498145
vt 0.778191 0.515126
vt 0.825807 0.518028
vt 0.825807 0.063145
vt 0.778191 0.066047
vt 0.727803 0.083028
vt 0.688143 0.109539
vt 0.963471 0.063145
vt 0.915855 0.066047
vt 0.135165 0.217980
vt 0.057721 0.334047
vt 0.029375 0.282392
vt 0.029375 0.213478
vt 0.057721 0.145771
vt 0.106819 0.097412
vt 0.163511 0.081359
vt 0.208046 0.680634
vt 0.614730 0.680634
vt 0.614730 0.717345
vt 0.208046 0.643923
vt 0.614730 0.643923
vt 0.208046 0.601533
vt 0.614730 0.601533
vt 0.208046 0.564822
vt 0.614730 0.564822
vt 0.809643 0.971507
vt 0.809643 0.564822
vt 0.846354 0.564822
vt 0.767253 0.971507
vt 0.767253 0.564822
vt 0.730542 0.971507
vt 0.730542 0.564822
vt 0.693831 0.971507
vt 0.693831 0.564822
vt 0.651441 0.971507
vt 0.651441 0.564822
vt 0.614730 0.971507
vt 0.208046 0.759735
vt 0.614730 0.759735
vt 0.614730 0.796446
vt 0.208046 0.717345
vt 0.468106 0.437332
vt 0.265396 0.077403
vt 0.846354 0.971507
vt 0.208046 0.796446
vn 0.186802 0.697155 -0.692156
vn 0.510353 0.510353 -0.692156
vn 0.697155 0.186802 -0.692156
vn 0.697155 -0.186802 -0.692156
vn 0.510353 -0.510353 -0.692156
vn 0.186802 -0.697154 -0.692156
vn -0.186802 -0.697155 -0.692157
vn -0.510353 -0.510353 -0.692156
vn -0.697155 -0.186802 -0.692156
vn -0.697155 0.186802 -0.692156
vn -0.510353 0.510352 -0.692156
vn -0.186802 0.697155 -0.692156
vn 0.233061 0.869797 0.434898
vn 0.636735 0.636735 0.434898
vn 0.869797 0.233061 0.434898
vn 0.869797 -0.233061 0.434898
vn 0.636735 -0.636735 0.434898
vn 0.233062 -0.869796 0.434898
vn -0.233061 -0.869796 0.434898
vn -0.636735 -0.636735 0.434898
vn -0.869796 -0.233062 0.434898
vn -0.869797 0.233061 0.434898
vn -0.636736 0.636735 0.434898
vn -0.233061 0.869797 0.434898
vn 0.000000 0.000000 -1.000000
vn 0.258819 0.965926 0.000000
vn 0.707107 0.707107 0.000000
vn 0.965926 0.258819 0.000000
vn 0.965926 -0.258819 0.000000
vn 0.707107 -0.707107 0.000000
vn 0.258819 -0.965926 0.000000
vn -0.258819 -0.965926 0.000000
vn -0.707107 -0.707107 0.000000
vn -0.965926 -0.258820 0.000000
vn -0.965926 0.258819 0.000000
vn -0.707107 0.707106 0.000000
vn -0.258819 0.965926 0.000000
vn 0.186802 -0.697155 -0.692156
vn -0.186802 -0.697155 -0.692156
vn -0.510352 -0.510353 -0.692156
vn -0.965926 0.258818 0.000000
usemtl Pencil
s off
f 1/1/1 17/2/1 16/3/1
f 1/1/2 28/4/2 18/5/2
f 29/6/3 19/7/3 18/8/3
f 29/6/4 30/9/4 20/10/4
f 30/9/5 31/11/5 21/12/5
f 31/11/6 32/13/6 22/14/6
f 33/15/7 23/16/7 22/14/7
f 34/17/8 24/18/8 23/16/8
f 35/19/9 25/20/9 24/18/9
f 36/21/10 26/22/10 25/23/10
f 38/24/11 27/25/11 26/22/11
f 37/26/12 16/3/12 27/25/12
f 2/27/13 14/28/13 3/29/13
f 3/30/14 14/31/14 4/32/14
f 4/32/15 14/31/15 5/33/15
f 5/33/16 14/31/16 6/34/16
f 6/35/17 14/36/17 7/37/17
f 7/37/18 14/36/18 8/38/18
f 8/38/19 14/36/19 9/39/19
f 9/40/20 14/36/20 10/41/20
f 10/41/21 14/36/21 11/42/21
f 11/42/22 14/36/22 12/43/22
f 12/44/23 14/28/23 13/45/23
f 13/45/24 14/28/24 2/27/24
f 15/46/25 16/3/25 17/2/25
f 15/46/25 17/2/25 18/5/25
f 15/46/25 18/5/25 19/47/25
f 15/46/25 19/47/25 20/48/25
f 15/46/25 20/48/25 21/49/25
f 15/46/25 21/49/25 22/50/25
f 15/46/25 22/50/25 23/51/25
f 15/46/25 23/51/25 24/52/25
f 15/46/25 24/52/25 25/23/25
f 15/46/25 25/23/25 26/22/25
f 15/46/25 26/22/25 27/25/25
f 15/46/25 27/25/25 16/3/25
f 3/53/26 1/54/26 37/55/26
f 4/56/27 28/57/27 1/54/27
f 5/58/28 29/59/28 28/57/28
f 6/60/29 30/61/29 29/59/29
f 7/62/30 31/63/30 30/64/30
f 8/65/31 32/66/31 31/63/31
f 9/67/32 33/68/32 32/66/32
f 9/67/33 10/69/33 34/70/33
f 11/71/34 35/72/34 34/70/34
f 12/73/35 36/61/35 35/72/35
f 13/74/36 38/75/36 36/76/36
f 13/74/37 2/77/37 37/55/37
f 37/26/1 1/1/1 16/3/1
f 17/2/2 1/1/2 18/5/2
f 28/78/3 29/6/3 18/8/3
f 19/7/4 29/6/4 20/10/4
f 20/10/5 30/9/5 21/12/5
f 21/12/38 31/11/38 22/14/38
f 32/13/39 33/15/39 22/14/39
f 33/15/40 34/17/40 23/16/40
f 34/17/9 35/19/9 24/18/9
f 35/79/10 36/21/10 25/23/10
f 36/21/11 38/24/11 26/22/11
f 38/24/12 37/26/12 27/25/12
f 2/77/26 3/53/26 37/55/26
f 3/53/27 4/56/27 1/54/27
f 4/56/28 5/58/28 28/57/28
f 5/58/29 6/60/29 29/59/29
f 6/80/30 7/62/30 30/64/30
f 7/62/31 8/65/31 31/63/31
f 8/65/32 9/67/32 32/66/32
f 33/68/33 9/67/33 34/70/33
f 10/69/34 11/71/34 34/70/34
f 11/71/41 12/73/41 35/72/41
f 12/81/36 13/74/36 36/76/36
f 38/75/37 13/74/37 37/55/37
